<svg xmlns="http://www.w3.org/2000/svg" xmlns:xlink="http://www.w3.org/1999/xlink" width="655.128" height="455.745" viewBox="0 0 655.128 455.745"><defs><style>.a{fill:#3f3d56;}.b{fill:url(#a);}.c{fill:#2f2e41;}.d{fill:#ffb9b9;}.e{fill:#575a89;}.f{fill:#6c63ff;}.g{fill:#e6e8ec;}</style><linearGradient id="a" x1="0.5" x2="0.5" y2="1" gradientUnits="objectBoundingBox"><stop offset="0" stop-color="#a457ff"/><stop offset="1" stop-color="#733eb4"/></linearGradient></defs><g transform="translate(-177.415 -1788.767)"><g transform="translate(180.238 1818.082)"><path class="a" d="M108,561.43H760.305V135H108ZM758.973,560.1H109.333V136.333h649.64Z" transform="translate(-108 -135)"/><rect class="a" width="314.146" height="404.689" transform="translate(324.775 11.023)"/><rect class="b" width="314.146" height="404.689" transform="translate(12.204 11.023)"/><path class="a" d="M596.8,580.419a41.145,41.145,0,0,0,2.048-4.373c2.624-6.559-2.46-11.776-2.678-12l-.2-.2,0-.281c.058-3.637,1.462-89.26,5.671-106.092,3.8-15.2,15.555-19.348,18.3-20.119l-.007-.075,13.519-1.732c-5.06-33.319-10.13-110.362,47.146-126.227a36.965,36.965,0,0,1,6.052-1l.124,1.327a36.477,36.477,0,0,0-5.817.955c-56.27,15.587-51.19,91.827-46.182,124.774l20.473-2.624c5.332-2.991,11.353-8.359,12.06-22.764a37.61,37.61,0,0,1-13.172-24.452,2.445,2.445,0,0,1-.287.017c-2.964,0-5.375-3.467-5.375-7.729s2.411-7.729,5.375-7.729a2.3,2.3,0,0,1,1.625.58,37.575,37.575,0,0,1,30.434-26.329l.19,1.319a36.066,36.066,0,0,0,0,71.381l-.19,1.32a36.983,36.983,0,0,1-17.323-7.348c-.913,13.456-6.655,19.188-11.57,22.24,5.617,7.681,14.716,12.332,27.069,13.813.66.079,1.32.146,1.979.2l-.119,1.327c-.673-.06-1.346-.128-2.019-.209-12.755-1.529-22.18-6.367-28.021-14.382l-.231.03-.13.073-.029-.052-34.143,4.376,9.832,113.779,0,.037v.037s-.027,1.051-.027,2.892v.154h0a279.185,279.185,0,0,0,1.469,30.064c1.1,9.9,2.776,17.48,4.975,22.534h17.25a15.7,15.7,0,0,0-.943-4.585l-1.543-4.422,2.715,3.816a26.373,26.373,0,0,0,5.326,5.19H686v1.333H660l-.175-.128a29.6,29.6,0,0,1-3.851-3.356,14.429,14.429,0,0,1,.245,2.83l-.012.653H608.853l-.156-.091c-2.836-1.659-2.836-4.725-2.836-10.29,0-3.491-2.344-5.835-4.827-8.318a27.556,27.556,0,0,1-3.536-4.026C595.379,583.371,595.467,582.928,596.8,580.419Zm58.237-208.3c-.5-.539-.64-.684-1.185-.684-2.191,0-4.042,2.929-4.042,6.4,0,3.444,1.826,6.357,4,6.4a1.493,1.493,0,0,1,.181-.33c-.058-.839-.1-1.683-.1-2.534a36.94,36.94,0,0,1,1.175-9.212ZM627.005,563.67l3.979,18.573c-.9-9.5-1.1-18.779-1.134-24.247Zm-28.4,22.142a26.555,26.555,0,0,0,3.37,3.822c2.565,2.566,5.217,5.218,5.217,9.26,0,5.46.079,7.8,2.027,9.048h26.957c-2.129-5.139-3.754-12.606-4.834-22.221l-1.427-2.1L625.6,563.491l4.245-8.464c0-1.557.021-2.529.026-2.727l-9.816-113.592c-2.882.852-13.578,4.921-17.121,19.091-4.056,16.227-5.535,100.13-5.626,105.525,1.011,1.136,5.412,6.618,2.773,13.215a42.452,42.452,0,0,1-2.109,4.5C596.847,583.171,596.847,583.171,598.607,585.812Z" transform="translate(-359.519 -192.839)"/><path class="c" d="M494.457,309.467V458.284l29.084,3.391,25.919,3.032,9.068,1.053v.007l.426.047a83.533,83.533,0,0,0,2.679-13.746c2.039-15.825,3.125-45.282-6.17-88.2C543.063,306.588,505.691,307.748,494.457,309.467Z" transform="translate(-168.218 -193.038)"/><path class="c" d="M352.939,581.078l-2,.1v27.265h92.236l-1.966-7.422-2.479-9.355-11.514-11.514-2.612-2.612Z" transform="translate(-24.701 -192.727)"/><path class="d" d="M531.325,363.46v72.013A36.73,36.73,0,1,0,538.6,362.74a36.3,36.3,0,0,0-6.9.653C531.571,363.413,531.451,363.433,531.325,363.46Z" transform="translate(-205.085 -210.997)"/><path class="d" d="M528.15,454.57V532.6l29.084-22.321,17.037-13.073-13.612-6.19c-.613-.273-1.253-.566-1.926-.873-10.148-4.611-11.86-17.064-11.827-25.139a51.23,51.23,0,0,1,.526-7.349Z" transform="translate(-201.911 -241.641)"/><path class="e" d="M458.271,514.947c-.666-.06-1.333-.127-2-.207V675.611h10.674c6.79-2.059,12.14-4.064,12.14-4.064s32.489-4.238,42.376-2.825l1.946.28c5.963.853,17.27,2.245,23.134-.813,5.843-3.045,6.29-10.507-9.3-27.318q-2.049-2.209-4.478-4.637S511.575,622.107,514.4,617.87s7.063-22.6,7.063-22.6l-.067-3.631-1.053-59.014v-.007l-.293-16.451-31.269-6.9-5.457,4.071A87.976,87.976,0,0,1,458.271,514.947Z" transform="translate(-130.033 -259.895)"/><path class="d" d="M483.222,757.593h16.864l-6.63-2.652s-2.572.473-6.25,1.479C485.981,756.754,484.635,757.14,483.222,757.593Z" transform="translate(-97.79 -341.876)"/><path class="e" d="M422.633,588.836c2.179.82,4.564,3.1,7,6.257,10.208,13.226,21.255,41.77,21.255,41.77a30.7,30.7,0,0,0-5.41,7.463c-.86,1.906-1.193,3.818-.24,5.25,2.825,4.238,0,0-2.825,0-1.1,0-1.559.426-1.626,1.2-.1,1.213.766,3.278,1.626,5.863,1.413,4.238,0,5.65-7.063,7.063s-2.825,1.412-2.825,5.65a6.714,6.714,0,0,1-.88,3.1,19.232,19.232,0,0,1-4.771,5.37c.28.02.546.04.813.067a21.653,21.653,0,0,1,5.537,1.173h36.16a8.508,8.508,0,0,1-1.546-2.652c-1.413-4.238,9.888-11.3,11.3-12.713s1.413-7.063,0-12.713,1.413-5.65,4.238-8.475,0-7.063-2.825-11.3-2.825-2.825,1.413-11.3-4.238-9.888-4.238-9.888-18.363-38.139-28.251-60.74c-6.536-14.945-13.7-23.1-17.79-26.905a25.92,25.92,0,0,0-3.4-2.758l-7.063,2.825s-.82,5.137-1.712,12.566C417.283,553.4,414.584,585.818,422.633,588.836Z" transform="translate(-38.267 -263.349)"/><path class="c" d="M527.31,345.71V357.1c.12.207.247.406.373.613C535.052,369.8,548.2,386.427,568.4,395.5l1.812-10.641,3.778-22.174Z" transform="translate(-201.071 -205.314)"/><path class="b" d="M196.812,626.166c-.02,42,24.94,56.671,55.735,56.686q1.073,0,2.136-.023,2.141-.045,4.237-.193c27.795-1.954,49.4-17.359,49.417-56.416.02-40.42-51.615-91.453-55.487-95.227,0,0,0,0-.007,0-.147-.144-.222-.216-.222-.216S196.832,584.172,196.812,626.166Z" transform="translate(284.794 -267.071)"/><path class="a" d="M268.1,676.429l-20.381-28.505,20.431,31.634.053,3.272q2.141-.045,4.237-.193l-2.177-42.016.017-.325-.038-.062-.207-3.97,20.513-31.693L269.976,633.29l-.052.842-1.645-31.744,17.563-32.752-17.776,27.173-1.7-65.815-.007-.219v.216l.262,51.9-17.455-20.585L266.7,587.362l.448,28.424-16.3-27.285,16.365,31.464.249,15.805L243.8,597.789l23.748,43.494Z" transform="translate(271.273 -267.071)"/><g transform="translate(87.43 165.288)"><path class="a" d="M201.167,732.086c.2-.329,4.95-8.258,6.6-24.722,1.51-15.1.539-40.566-12.665-76.081-25.015-67.282,5.765-121.569,6.079-122.109l-1.519-.881c-.08.137-8.022,13.978-12.714,36.018a157.134,157.134,0,0,0,6.508,87.585c24.972,67.167,6.407,98.964,6.217,99.277Z" transform="translate(-158.295 -482.407)"/><ellipse class="f" cx="11.408" cy="11.408" rx="11.408" ry="11.408" transform="translate(41.245)"/><ellipse class="f" cx="11.408" cy="11.408" rx="11.408" ry="11.408" transform="translate(5.265 42.122)"/><ellipse class="f" cx="11.408" cy="11.408" rx="11.408" ry="11.408" transform="translate(29.836 70.203)"/><ellipse class="f" cx="11.408" cy="11.408" rx="11.408" ry="11.408" transform="translate(0 93.897)"/><ellipse class="f" cx="11.408" cy="11.408" rx="11.408" ry="11.408" transform="translate(38.612 130.754)"/><path class="a" d="M220.236,756.937s11.408-28.081-22.816-49.142Z" transform="translate(-184.257 -506.837)"/><path class="a" d="M131.8,759.082S137,729.22,177.18,729.476Z" transform="translate(-81.794 -509.492)"/></g></g><g transform="matrix(0.966, -0.259, 0.259, 0.966, 177.415, 1837.565)"><rect class="g" width="188.539" height="242.469" transform="translate(0 0)"/><rect class="a" width="96.256" height="1.082" transform="translate(44.244 43.891)"/><rect class="a" width="96.256" height="1.082" transform="translate(44.244 51.462)"/><rect class="a" width="96.256" height="1.082" transform="translate(44.244 59.033)"/><rect class="f" width="96.256" height="1.082" transform="translate(44.244 100.273)"/><rect class="f" width="96.256" height="1.082" transform="translate(44.244 107.843)"/><rect class="a" width="96.256" height="1.082" transform="translate(44.244 115.414)"/><rect class="a" width="96.256" height="1.082" transform="translate(44.244 134.552)"/><rect class="a" width="96.256" height="1.082" transform="translate(44.244 142.123)"/><rect class="a" width="96.256" height="1.082" transform="translate(44.244 149.694)"/><rect class="a" width="96.256" height="1.082" transform="translate(44.244 168.832)"/><rect class="f" width="96.256" height="1.082" transform="translate(44.244 176.403)"/><rect class="a" width="96.256" height="1.082" transform="translate(44.244 183.974)"/><rect class="a" width="96.256" height="1.082" transform="translate(44.244 203.112)"/><rect class="a" width="96.256" height="1.082" transform="translate(44.244 210.683)"/><rect class="a" width="96.256" height="1.082" transform="translate(44.244 218.253)"/></g></g></svg>