<svg xmlns="http://www.w3.org/2000/svg" width="29.682" height="27.609" viewBox="0 0 29.682 27.609"><defs><style>.a{fill:#fff;}</style></defs><path class="a" d="M10.942,27.609,6.459,23.138H4.266A4.274,4.274,0,0,1,0,18.872V4.266A4.274,4.274,0,0,1,4.266,0h21.15a4.274,4.274,0,0,1,4.266,4.266V18.884a4.274,4.274,0,0,1-4.266,4.266h-9.99ZM4.266,2.736A1.52,1.52,0,0,0,2.748,4.254V18.872a1.52,1.52,0,0,0,1.518,1.518H7.592l3.338,3.338,1.663-1.663-1.627-1.651,3.88-.012H25.416a1.52,1.52,0,0,0,1.518-1.518V4.266a1.52,1.52,0,0,0-1.518-1.518H4.266Z"/><g transform="translate(6.646 9.965)"><circle class="a" cx="1.89" cy="1.89" r="1.89"/></g><g transform="translate(12.945 9.965)"><circle class="a" cx="1.89" cy="1.89" r="1.89"/></g><g transform="translate(19.243 9.965)"><circle class="a" cx="1.89" cy="1.89" r="1.89"/></g></svg>