<svg xmlns="http://www.w3.org/2000/svg" width="39.584" height="36.06" viewBox="0 0 39.584 36.06"><defs><style>.a{fill:none;}.b{fill:#fff;}</style></defs><path class="a" d="M0,0H39.584V36.06H0Z"/><path class="b" d="M19.792,4.5A20.26,20.26,0,0,0,1,18.03,20.26,20.26,0,0,0,19.792,31.56,20.26,20.26,0,0,0,38.584,18.03,20.26,20.26,0,0,0,19.792,4.5Zm0,22.55a8.794,8.794,0,0,1-8.542-9.02,8.794,8.794,0,0,1,8.542-9.02,8.794,8.794,0,0,1,8.542,9.02A8.794,8.794,0,0,1,19.792,27.05Zm0-14.432a5.267,5.267,0,0,0-5.125,5.412,5.267,5.267,0,0,0,5.125,5.412,5.267,5.267,0,0,0,5.125-5.412A5.267,5.267,0,0,0,19.792,12.618Z" transform="translate(0 0)"/></svg>