<svg xmlns="http://www.w3.org/2000/svg" width="33.934" height="33.934" viewBox="0 0 33.934 33.934"><defs><style>.a{fill:none;}.b{fill:#fff;}</style></defs><path class="a" d="M0,0H33.934V33.934H0Z"/><path class="b" d="M26.692,11.311H25.071V8.365C25.071,4.3,21.441,1,16.967,1s-8.1,3.3-8.1,7.365v2.946H7.242A3.114,3.114,0,0,0,4,14.257v14.73a3.114,3.114,0,0,0,3.242,2.946h19.45a3.114,3.114,0,0,0,3.242-2.946V14.257A3.114,3.114,0,0,0,26.692,11.311ZM16.967,24.569a3.114,3.114,0,0,1-3.242-2.946,3.114,3.114,0,0,1,3.242-2.946,3.114,3.114,0,0,1,3.242,2.946A3.114,3.114,0,0,1,16.967,24.569Zm5.025-13.257H11.942V8.365A4.816,4.816,0,0,1,16.967,3.8a4.816,4.816,0,0,1,5.025,4.566Z"/></svg>